<mxfile host="Electron" modified="2023-09-25T13:35:36.312Z" agent="Mozilla/5.0 (Windows NT 10.0; Win64; x64) AppleWebKit/537.36 (KHTML, like Gecko) draw.io/21.7.5 Chrome/114.0.5735.289 Electron/25.8.1 Safari/537.36" etag="m1a4a77stvKrOZJ2RS54" version="21.7.5" type="device">
  <diagram id="xv2eIjmOlNBZ2sj1y1XA" name="Page-1">
    <mxGraphModel dx="2038" dy="2642" grid="1" gridSize="10" guides="1" tooltips="1" connect="1" arrows="1" fold="1" page="1" pageScale="1" pageWidth="827" pageHeight="1169" math="0" shadow="0">
      <root>
        <mxCell id="0" />
        <mxCell id="1" parent="0" />
        <mxCell id="q8Qy7fo4GiIeipYBg-f--51" value="Recruiter" style="rounded=1;arcSize=10;whiteSpace=wrap;html=1;align=center;" parent="1" vertex="1">
          <mxGeometry x="690" y="150" width="100" height="40" as="geometry" />
        </mxCell>
        <mxCell id="q8Qy7fo4GiIeipYBg-f--52" value="Job Advert" style="rounded=1;arcSize=10;whiteSpace=wrap;html=1;align=center;" parent="1" vertex="1">
          <mxGeometry x="1250" y="150" width="100" height="40" as="geometry" />
        </mxCell>
        <mxCell id="q8Qy7fo4GiIeipYBg-f--53" value="&lt;div&gt;JobSeeker&lt;/div&gt;" style="rounded=1;arcSize=10;whiteSpace=wrap;html=1;align=center;" parent="1" vertex="1">
          <mxGeometry x="1810" y="150" width="100" height="40" as="geometry" />
        </mxCell>
        <mxCell id="q8Qy7fo4GiIeipYBg-f--54" value="Organization Name" style="ellipse;whiteSpace=wrap;html=1;align=center;" parent="1" vertex="1">
          <mxGeometry x="610" y="-90" width="100" height="40" as="geometry" />
        </mxCell>
        <mxCell id="q8Qy7fo4GiIeipYBg-f--55" value="Address&amp;nbsp;" style="ellipse;whiteSpace=wrap;html=1;align=center;" parent="1" vertex="1">
          <mxGeometry x="670" y="-40" width="100" height="40" as="geometry" />
        </mxCell>
        <mxCell id="q8Qy7fo4GiIeipYBg-f--56" value="Address&amp;nbsp;" style="ellipse;whiteSpace=wrap;html=1;align=center;" parent="1" vertex="1">
          <mxGeometry x="1700" y="-100" width="100" height="40" as="geometry" />
        </mxCell>
        <mxCell id="q8Qy7fo4GiIeipYBg-f--57" value="City&amp;nbsp;" style="ellipse;whiteSpace=wrap;html=1;align=center;" parent="1" vertex="1">
          <mxGeometry x="730" y="-90" width="100" height="40" as="geometry" />
        </mxCell>
        <mxCell id="q8Qy7fo4GiIeipYBg-f--59" value="Country&amp;nbsp;" style="ellipse;whiteSpace=wrap;html=1;align=center;" parent="1" vertex="1">
          <mxGeometry x="550" y="-40" width="100" height="40" as="geometry" />
        </mxCell>
        <mxCell id="q8Qy7fo4GiIeipYBg-f--60" value="Job Title" style="ellipse;whiteSpace=wrap;html=1;align=center;" parent="1" vertex="1">
          <mxGeometry x="1310" y="-150" width="100" height="40" as="geometry" />
        </mxCell>
        <mxCell id="q8Qy7fo4GiIeipYBg-f--61" value="Description&amp;nbsp;" style="ellipse;whiteSpace=wrap;html=1;align=center;" parent="1" vertex="1">
          <mxGeometry x="1180" y="-150" width="100" height="40" as="geometry" />
        </mxCell>
        <mxCell id="q8Qy7fo4GiIeipYBg-f--62" value="Publication Date" style="ellipse;whiteSpace=wrap;html=1;align=center;" parent="1" vertex="1">
          <mxGeometry x="1480" y="-100" width="100" height="40" as="geometry" />
        </mxCell>
        <mxCell id="q8Qy7fo4GiIeipYBg-f--63" value="Application Closing Date" style="ellipse;whiteSpace=wrap;html=1;align=center;" parent="1" vertex="1">
          <mxGeometry x="1360" y="-100" width="100" height="50" as="geometry" />
        </mxCell>
        <mxCell id="q8Qy7fo4GiIeipYBg-f--64" value="Fee&amp;nbsp;" style="ellipse;whiteSpace=wrap;html=1;align=center;" parent="1" vertex="1">
          <mxGeometry x="1240" y="-100" width="100" height="40" as="geometry" />
        </mxCell>
        <mxCell id="q8Qy7fo4GiIeipYBg-f--65" value="NumberOfVisits" style="ellipse;whiteSpace=wrap;html=1;align=center;" parent="1" vertex="1">
          <mxGeometry x="1310" y="370" width="100" height="40" as="geometry" />
        </mxCell>
        <mxCell id="q8Qy7fo4GiIeipYBg-f--66" value="Name" style="ellipse;whiteSpace=wrap;html=1;align=center;" parent="1" vertex="1">
          <mxGeometry x="400" y="140" width="100" height="40" as="geometry" />
        </mxCell>
        <mxCell id="q8Qy7fo4GiIeipYBg-f--67" value="Surname" style="ellipse;whiteSpace=wrap;html=1;align=center;" parent="1" vertex="1">
          <mxGeometry x="400" y="190" width="100" height="40" as="geometry" />
        </mxCell>
        <mxCell id="q8Qy7fo4GiIeipYBg-f--68" value="Nationality" style="ellipse;whiteSpace=wrap;html=1;align=center;" parent="1" vertex="1">
          <mxGeometry x="2030" y="-100" width="100" height="40" as="geometry" />
        </mxCell>
        <mxCell id="q8Qy7fo4GiIeipYBg-f--69" value="BirthDate&amp;nbsp;" style="ellipse;whiteSpace=wrap;html=1;align=center;" parent="1" vertex="1">
          <mxGeometry x="2140" y="-100" width="100" height="40" as="geometry" />
        </mxCell>
        <mxCell id="q8Qy7fo4GiIeipYBg-f--70" value="Phone&amp;nbsp;" style="ellipse;whiteSpace=wrap;html=1;align=center;" parent="1" vertex="1">
          <mxGeometry x="2140" y="-55" width="100" height="40" as="geometry" />
        </mxCell>
        <mxCell id="q8Qy7fo4GiIeipYBg-f--71" value="Profile Summary" style="ellipse;whiteSpace=wrap;html=1;align=center;" parent="1" vertex="1">
          <mxGeometry x="2145" y="165" width="100" height="40" as="geometry" />
        </mxCell>
        <mxCell id="q8Qy7fo4GiIeipYBg-f--72" value="Current Job Title&amp;nbsp;" style="ellipse;whiteSpace=wrap;html=1;align=center;" parent="1" vertex="1">
          <mxGeometry x="2145" y="210" width="100" height="40" as="geometry" />
        </mxCell>
        <mxCell id="q8Qy7fo4GiIeipYBg-f--73" value="Experience&amp;nbsp;" style="ellipse;whiteSpace=wrap;html=1;align=center;" parent="1" vertex="1">
          <mxGeometry x="2145" y="260" width="100" height="40" as="geometry" />
        </mxCell>
        <mxCell id="q8Qy7fo4GiIeipYBg-f--74" value="Job Type Sought" style="ellipse;whiteSpace=wrap;html=1;align=center;" parent="1" vertex="1">
          <mxGeometry x="2145" y="310" width="100" height="40" as="geometry" />
        </mxCell>
        <mxCell id="q8Qy7fo4GiIeipYBg-f--75" value="Minimum Salary" style="ellipse;whiteSpace=wrap;html=1;align=center;" parent="1" vertex="1">
          <mxGeometry x="2145" y="360" width="100" height="40" as="geometry" />
        </mxCell>
        <mxCell id="q8Qy7fo4GiIeipYBg-f--76" value="Highest Qualification" style="ellipse;whiteSpace=wrap;html=1;align=center;" parent="1" vertex="1">
          <mxGeometry x="2145" y="410" width="100" height="40" as="geometry" />
        </mxCell>
        <mxCell id="q8Qy7fo4GiIeipYBg-f--77" value="Language" style="ellipse;whiteSpace=wrap;html=1;align=center;" parent="1" vertex="1">
          <mxGeometry x="2045" y="420" width="100" height="40" as="geometry" />
        </mxCell>
        <mxCell id="q8Qy7fo4GiIeipYBg-f--78" value="Level" style="ellipse;whiteSpace=wrap;html=1;align=center;" parent="1" vertex="1">
          <mxGeometry x="1930" y="410" width="100" height="40" as="geometry" />
        </mxCell>
        <mxCell id="q8Qy7fo4GiIeipYBg-f--79" value="Relocation Preference" style="ellipse;whiteSpace=wrap;html=1;align=center;" parent="1" vertex="1">
          <mxGeometry x="1980" y="460" width="100" height="40" as="geometry" />
        </mxCell>
        <mxCell id="q8Qy7fo4GiIeipYBg-f--80" value="Cover Letter" style="ellipse;whiteSpace=wrap;html=1;align=center;" parent="1" vertex="1">
          <mxGeometry x="1130" y="560" width="100" height="40" as="geometry" />
        </mxCell>
        <mxCell id="q8Qy7fo4GiIeipYBg-f--81" value="Job Title" style="ellipse;whiteSpace=wrap;html=1;align=center;" parent="1" vertex="1">
          <mxGeometry x="1130" y="610" width="100" height="40" as="geometry" />
        </mxCell>
        <mxCell id="q8Qy7fo4GiIeipYBg-f--82" value="Date Of Application" style="ellipse;whiteSpace=wrap;html=1;align=center;" parent="1" vertex="1">
          <mxGeometry x="1130" y="660" width="100" height="40" as="geometry" />
        </mxCell>
        <mxCell id="q8Qy7fo4GiIeipYBg-f--83" value="Application Status" style="ellipse;whiteSpace=wrap;html=1;align=center;" parent="1" vertex="1">
          <mxGeometry x="1130" y="710" width="100" height="40" as="geometry" />
        </mxCell>
        <mxCell id="q8Qy7fo4GiIeipYBg-f--84" value="Search Name" style="ellipse;whiteSpace=wrap;html=1;align=center;" parent="1" vertex="1">
          <mxGeometry x="410" y="380" width="100" height="40" as="geometry" />
        </mxCell>
        <mxCell id="q8Qy7fo4GiIeipYBg-f--85" value="Folder&amp;nbsp;" style="ellipse;whiteSpace=wrap;html=1;align=center;" parent="1" vertex="1">
          <mxGeometry x="410" y="430" width="100" height="40" as="geometry" />
        </mxCell>
        <mxCell id="q8Qy7fo4GiIeipYBg-f--86" value="Rating&amp;nbsp;" style="ellipse;whiteSpace=wrap;html=1;align=center;" parent="1" vertex="1">
          <mxGeometry x="410" y="480" width="100" height="40" as="geometry" />
        </mxCell>
        <mxCell id="q8Qy7fo4GiIeipYBg-f--87" value="Status&amp;nbsp;" style="ellipse;whiteSpace=wrap;html=1;align=center;" parent="1" vertex="1">
          <mxGeometry x="410" y="530" width="100" height="40" as="geometry" />
        </mxCell>
        <mxCell id="q8Qy7fo4GiIeipYBg-f--88" value="Note&amp;nbsp;" style="ellipse;whiteSpace=wrap;html=1;align=center;" parent="1" vertex="1">
          <mxGeometry x="410" y="580" width="100" height="40" as="geometry" />
        </mxCell>
        <mxCell id="q8Qy7fo4GiIeipYBg-f--90" value="City&amp;nbsp;" style="ellipse;whiteSpace=wrap;html=1;align=center;" parent="1" vertex="1">
          <mxGeometry x="990" y="-95" width="100" height="40" as="geometry" />
        </mxCell>
        <mxCell id="q8Qy7fo4GiIeipYBg-f--91" value="Country&amp;nbsp;" style="ellipse;whiteSpace=wrap;html=1;align=center;" parent="1" vertex="1">
          <mxGeometry x="1430" y="-150" width="100" height="40" as="geometry" />
        </mxCell>
        <mxCell id="q8Qy7fo4GiIeipYBg-f--92" value="Job Title" style="ellipse;whiteSpace=wrap;html=1;align=center;" parent="1" vertex="1">
          <mxGeometry x="1130" y="510" width="100" height="40" as="geometry" />
        </mxCell>
        <mxCell id="q8Qy7fo4GiIeipYBg-f--93" value="Name" style="ellipse;whiteSpace=wrap;html=1;align=center;" parent="1" vertex="1">
          <mxGeometry x="1810" y="-100" width="100" height="40" as="geometry" />
        </mxCell>
        <mxCell id="q8Qy7fo4GiIeipYBg-f--94" value="Surname" style="ellipse;whiteSpace=wrap;html=1;align=center;" parent="1" vertex="1">
          <mxGeometry x="1920" y="-100" width="100" height="40" as="geometry" />
        </mxCell>
        <mxCell id="q8Qy7fo4GiIeipYBg-f--95" value="Phone&amp;nbsp;" style="ellipse;whiteSpace=wrap;html=1;align=center;" parent="1" vertex="1">
          <mxGeometry x="400" y="240" width="100" height="40" as="geometry" />
        </mxCell>
        <mxCell id="q8Qy7fo4GiIeipYBg-f--96" value="Organization Registration Number" style="ellipse;whiteSpace=wrap;html=1;align=center;fontStyle=4;" parent="1" vertex="1">
          <mxGeometry x="790" y="-45" width="110" height="50" as="geometry" />
        </mxCell>
        <mxCell id="q8Qy7fo4GiIeipYBg-f--97" value="Advert ID" style="ellipse;whiteSpace=wrap;html=1;align=center;fontStyle=4;" parent="1" vertex="1">
          <mxGeometry x="1110" y="-100" width="110" height="50" as="geometry" />
        </mxCell>
        <mxCell id="q8Qy7fo4GiIeipYBg-f--98" value="Email&amp;nbsp;" style="ellipse;whiteSpace=wrap;html=1;align=center;fontStyle=4;" parent="1" vertex="1">
          <mxGeometry x="2135" width="110" height="50" as="geometry" />
        </mxCell>
        <mxCell id="q8Qy7fo4GiIeipYBg-f--99" value="Preferred Discipline Categories" style="ellipse;shape=doubleEllipse;margin=3;whiteSpace=wrap;html=1;align=center;" parent="1" vertex="1">
          <mxGeometry x="2140" y="60" width="100" height="40" as="geometry" />
        </mxCell>
        <mxCell id="q8Qy7fo4GiIeipYBg-f--100" value="Authorized Countries" style="ellipse;shape=doubleEllipse;margin=3;whiteSpace=wrap;html=1;align=center;" parent="1" vertex="1">
          <mxGeometry x="2140" y="110" width="100" height="40" as="geometry" />
        </mxCell>
        <mxCell id="q8Qy7fo4GiIeipYBg-f--101" value="Application History" style="shape=associativeEntity;whiteSpace=wrap;html=1;align=center;" parent="1" vertex="1">
          <mxGeometry x="1510" y="290" width="140" height="60" as="geometry" />
        </mxCell>
        <mxCell id="q8Qy7fo4GiIeipYBg-f--102" value="Posts&amp;nbsp;" style="shape=rhombus;perimeter=rhombusPerimeter;whiteSpace=wrap;html=1;align=center;" parent="1" vertex="1">
          <mxGeometry x="940" y="140" width="120" height="60" as="geometry" />
        </mxCell>
        <mxCell id="q8Qy7fo4GiIeipYBg-f--103" value="Applies To&amp;nbsp;" style="shape=rhombus;perimeter=rhombusPerimeter;whiteSpace=wrap;html=1;align=center;" parent="1" vertex="1">
          <mxGeometry x="1540" y="170" width="120" height="60" as="geometry" />
        </mxCell>
        <mxCell id="q8Qy7fo4GiIeipYBg-f--104" value="Saves" style="shape=rhombus;perimeter=rhombusPerimeter;whiteSpace=wrap;html=1;align=center;" parent="1" vertex="1">
          <mxGeometry x="1540" y="105" width="120" height="60" as="geometry" />
        </mxCell>
        <mxCell id="q8Qy7fo4GiIeipYBg-f--105" value="Searches&amp;nbsp;" style="shape=rhombus;perimeter=rhombusPerimeter;whiteSpace=wrap;html=1;align=center;" parent="1" vertex="1">
          <mxGeometry x="680" y="260" width="120" height="60" as="geometry" />
        </mxCell>
        <mxCell id="q8Qy7fo4GiIeipYBg-f--106" value="Has&amp;nbsp;" style="shape=rhombus;double=1;perimeter=rhombusPerimeter;whiteSpace=wrap;html=1;align=center;" parent="1" vertex="1">
          <mxGeometry x="1730" y="280" width="120" height="60" as="geometry" />
        </mxCell>
        <mxCell id="q8Qy7fo4GiIeipYBg-f--109" value="" style="edgeStyle=entityRelationEdgeStyle;fontSize=12;html=1;endArrow=ERoneToMany;rounded=0;entryX=0;entryY=0.5;entryDx=0;entryDy=0;exitX=0.5;exitY=1;exitDx=0;exitDy=0;" parent="1" source="q8Qy7fo4GiIeipYBg-f--52" target="q8Qy7fo4GiIeipYBg-f--101" edge="1">
          <mxGeometry width="100" height="100" relative="1" as="geometry">
            <mxPoint x="1290" y="220" as="sourcePoint" />
            <mxPoint x="1300" y="280" as="targetPoint" />
            <Array as="points">
              <mxPoint x="1310" y="270" />
              <mxPoint x="1270" y="260" />
              <mxPoint x="1290" y="240" />
              <mxPoint x="1300" y="250" />
              <mxPoint x="1300" y="280" />
              <mxPoint x="1300" y="280" />
            </Array>
          </mxGeometry>
        </mxCell>
        <mxCell id="q8Qy7fo4GiIeipYBg-f--111" value="" style="endArrow=none;html=1;rounded=0;exitX=0.5;exitY=1;exitDx=0;exitDy=0;entryX=0.25;entryY=0;entryDx=0;entryDy=0;" parent="1" source="q8Qy7fo4GiIeipYBg-f--59" target="q8Qy7fo4GiIeipYBg-f--51" edge="1">
          <mxGeometry relative="1" as="geometry">
            <mxPoint x="760" y="210" as="sourcePoint" />
            <mxPoint x="920" y="210" as="targetPoint" />
          </mxGeometry>
        </mxCell>
        <mxCell id="q8Qy7fo4GiIeipYBg-f--112" value="" style="endArrow=none;html=1;rounded=0;exitX=0.5;exitY=1;exitDx=0;exitDy=0;entryX=0.25;entryY=0;entryDx=0;entryDy=0;" parent="1" source="q8Qy7fo4GiIeipYBg-f--54" target="q8Qy7fo4GiIeipYBg-f--51" edge="1">
          <mxGeometry relative="1" as="geometry">
            <mxPoint x="610" y="10" as="sourcePoint" />
            <mxPoint x="725" y="160" as="targetPoint" />
          </mxGeometry>
        </mxCell>
        <mxCell id="q8Qy7fo4GiIeipYBg-f--113" value="" style="endArrow=none;html=1;rounded=0;exitX=0.5;exitY=1;exitDx=0;exitDy=0;entryX=0.5;entryY=0;entryDx=0;entryDy=0;" parent="1" source="q8Qy7fo4GiIeipYBg-f--55" target="q8Qy7fo4GiIeipYBg-f--51" edge="1">
          <mxGeometry relative="1" as="geometry">
            <mxPoint x="670" y="-40" as="sourcePoint" />
            <mxPoint x="725" y="160" as="targetPoint" />
          </mxGeometry>
        </mxCell>
        <mxCell id="q8Qy7fo4GiIeipYBg-f--114" value="" style="endArrow=none;html=1;rounded=0;exitX=0.5;exitY=1;exitDx=0;exitDy=0;entryX=0.75;entryY=0;entryDx=0;entryDy=0;" parent="1" source="q8Qy7fo4GiIeipYBg-f--57" target="q8Qy7fo4GiIeipYBg-f--51" edge="1">
          <mxGeometry relative="1" as="geometry">
            <mxPoint x="730" y="10" as="sourcePoint" />
            <mxPoint x="750" y="160" as="targetPoint" />
          </mxGeometry>
        </mxCell>
        <mxCell id="q8Qy7fo4GiIeipYBg-f--115" value="" style="endArrow=none;html=1;rounded=0;exitX=0.5;exitY=1;exitDx=0;exitDy=0;entryX=0.75;entryY=0;entryDx=0;entryDy=0;" parent="1" source="q8Qy7fo4GiIeipYBg-f--96" target="q8Qy7fo4GiIeipYBg-f--51" edge="1">
          <mxGeometry relative="1" as="geometry">
            <mxPoint x="790" y="-40" as="sourcePoint" />
            <mxPoint x="775" y="160" as="targetPoint" />
          </mxGeometry>
        </mxCell>
        <mxCell id="q8Qy7fo4GiIeipYBg-f--116" value="" style="endArrow=none;html=1;rounded=0;exitX=0.5;exitY=1;exitDx=0;exitDy=0;entryX=0;entryY=0;entryDx=0;entryDy=0;" parent="1" source="q8Qy7fo4GiIeipYBg-f--90" target="q8Qy7fo4GiIeipYBg-f--52" edge="1">
          <mxGeometry relative="1" as="geometry">
            <mxPoint x="1190" y="-180" as="sourcePoint" />
            <mxPoint x="1350" y="-180" as="targetPoint" />
          </mxGeometry>
        </mxCell>
        <mxCell id="q8Qy7fo4GiIeipYBg-f--117" value="" style="endArrow=none;html=1;rounded=0;exitX=0.5;exitY=1;exitDx=0;exitDy=0;entryX=0;entryY=0;entryDx=0;entryDy=0;" parent="1" source="q8Qy7fo4GiIeipYBg-f--97" target="q8Qy7fo4GiIeipYBg-f--52" edge="1">
          <mxGeometry relative="1" as="geometry">
            <mxPoint x="1050" y="-45" as="sourcePoint" />
            <mxPoint x="1260" y="160" as="targetPoint" />
          </mxGeometry>
        </mxCell>
        <mxCell id="q8Qy7fo4GiIeipYBg-f--118" value="" style="endArrow=none;html=1;rounded=0;exitX=0.5;exitY=1;exitDx=0;exitDy=0;entryX=0;entryY=0;entryDx=0;entryDy=0;" parent="1" source="q8Qy7fo4GiIeipYBg-f--61" target="q8Qy7fo4GiIeipYBg-f--52" edge="1">
          <mxGeometry relative="1" as="geometry">
            <mxPoint x="1175" y="-40" as="sourcePoint" />
            <mxPoint x="1260" y="160" as="targetPoint" />
          </mxGeometry>
        </mxCell>
        <mxCell id="q8Qy7fo4GiIeipYBg-f--119" value="" style="endArrow=none;html=1;rounded=0;exitX=0.5;exitY=1;exitDx=0;exitDy=0;entryX=0.25;entryY=0;entryDx=0;entryDy=0;" parent="1" source="q8Qy7fo4GiIeipYBg-f--64" target="q8Qy7fo4GiIeipYBg-f--52" edge="1">
          <mxGeometry relative="1" as="geometry">
            <mxPoint x="1240" y="-100" as="sourcePoint" />
            <mxPoint x="1260" y="160" as="targetPoint" />
          </mxGeometry>
        </mxCell>
        <mxCell id="q8Qy7fo4GiIeipYBg-f--120" value="" style="endArrow=none;html=1;rounded=0;exitX=0.5;exitY=1;exitDx=0;exitDy=0;entryX=0.5;entryY=0;entryDx=0;entryDy=0;" parent="1" source="q8Qy7fo4GiIeipYBg-f--60" target="q8Qy7fo4GiIeipYBg-f--52" edge="1">
          <mxGeometry relative="1" as="geometry">
            <mxPoint x="1300" y="-50" as="sourcePoint" />
            <mxPoint x="1285" y="160" as="targetPoint" />
          </mxGeometry>
        </mxCell>
        <mxCell id="q8Qy7fo4GiIeipYBg-f--121" value="" style="endArrow=none;html=1;rounded=0;exitX=0.5;exitY=1;exitDx=0;exitDy=0;entryX=0.75;entryY=0;entryDx=0;entryDy=0;" parent="1" source="q8Qy7fo4GiIeipYBg-f--63" target="q8Qy7fo4GiIeipYBg-f--52" edge="1">
          <mxGeometry relative="1" as="geometry">
            <mxPoint x="1370" y="-100" as="sourcePoint" />
            <mxPoint x="1310" y="160" as="targetPoint" />
          </mxGeometry>
        </mxCell>
        <mxCell id="q8Qy7fo4GiIeipYBg-f--122" value="" style="endArrow=none;html=1;rounded=0;exitX=0.5;exitY=1;exitDx=0;exitDy=0;entryX=1;entryY=0;entryDx=0;entryDy=0;" parent="1" source="q8Qy7fo4GiIeipYBg-f--91" target="q8Qy7fo4GiIeipYBg-f--52" edge="1">
          <mxGeometry relative="1" as="geometry">
            <mxPoint x="1420" y="-40" as="sourcePoint" />
            <mxPoint x="1335" y="160" as="targetPoint" />
          </mxGeometry>
        </mxCell>
        <mxCell id="q8Qy7fo4GiIeipYBg-f--123" value="" style="endArrow=none;html=1;rounded=0;exitX=0.5;exitY=1;exitDx=0;exitDy=0;entryX=1;entryY=0;entryDx=0;entryDy=0;" parent="1" source="q8Qy7fo4GiIeipYBg-f--62" target="q8Qy7fo4GiIeipYBg-f--52" edge="1">
          <mxGeometry relative="1" as="geometry">
            <mxPoint x="1490" y="-100" as="sourcePoint" />
            <mxPoint x="1360" y="160" as="targetPoint" />
          </mxGeometry>
        </mxCell>
        <mxCell id="q8Qy7fo4GiIeipYBg-f--124" value="" style="endArrow=none;html=1;rounded=0;exitX=0.5;exitY=1;exitDx=0;exitDy=0;entryX=0;entryY=0;entryDx=0;entryDy=0;" parent="1" source="q8Qy7fo4GiIeipYBg-f--56" target="q8Qy7fo4GiIeipYBg-f--53" edge="1">
          <mxGeometry relative="1" as="geometry">
            <mxPoint x="1710" y="-30" as="sourcePoint" />
            <mxPoint x="1870" y="-30" as="targetPoint" />
          </mxGeometry>
        </mxCell>
        <mxCell id="q8Qy7fo4GiIeipYBg-f--125" value="" style="endArrow=none;html=1;rounded=0;exitX=0.5;exitY=1;exitDx=0;exitDy=0;entryX=0.25;entryY=0;entryDx=0;entryDy=0;" parent="1" source="q8Qy7fo4GiIeipYBg-f--93" target="q8Qy7fo4GiIeipYBg-f--53" edge="1">
          <mxGeometry relative="1" as="geometry">
            <mxPoint x="1760" y="-50" as="sourcePoint" />
            <mxPoint x="1820" y="160" as="targetPoint" />
          </mxGeometry>
        </mxCell>
        <mxCell id="q8Qy7fo4GiIeipYBg-f--126" value="" style="endArrow=none;html=1;rounded=0;exitX=0.5;exitY=1;exitDx=0;exitDy=0;entryX=0.5;entryY=0;entryDx=0;entryDy=0;" parent="1" source="q8Qy7fo4GiIeipYBg-f--94" target="q8Qy7fo4GiIeipYBg-f--53" edge="1">
          <mxGeometry relative="1" as="geometry">
            <mxPoint x="1870" y="-50" as="sourcePoint" />
            <mxPoint x="1845" y="160" as="targetPoint" />
          </mxGeometry>
        </mxCell>
        <mxCell id="q8Qy7fo4GiIeipYBg-f--127" value="" style="endArrow=none;html=1;rounded=0;exitX=0.5;exitY=1;exitDx=0;exitDy=0;entryX=0.75;entryY=0;entryDx=0;entryDy=0;" parent="1" source="q8Qy7fo4GiIeipYBg-f--68" target="q8Qy7fo4GiIeipYBg-f--53" edge="1">
          <mxGeometry relative="1" as="geometry">
            <mxPoint x="1980" y="-50" as="sourcePoint" />
            <mxPoint x="1870" y="160" as="targetPoint" />
          </mxGeometry>
        </mxCell>
        <mxCell id="q8Qy7fo4GiIeipYBg-f--128" value="" style="endArrow=none;html=1;rounded=0;exitX=0;exitY=1;exitDx=0;exitDy=0;entryX=1;entryY=0;entryDx=0;entryDy=0;" parent="1" source="q8Qy7fo4GiIeipYBg-f--69" target="q8Qy7fo4GiIeipYBg-f--53" edge="1">
          <mxGeometry relative="1" as="geometry">
            <mxPoint x="2090" y="-50" as="sourcePoint" />
            <mxPoint x="1910" y="170" as="targetPoint" />
          </mxGeometry>
        </mxCell>
        <mxCell id="q8Qy7fo4GiIeipYBg-f--129" value="" style="endArrow=none;html=1;rounded=0;entryX=0.965;entryY=0.064;entryDx=0;entryDy=0;entryPerimeter=0;" parent="1" target="q8Qy7fo4GiIeipYBg-f--53" edge="1">
          <mxGeometry relative="1" as="geometry">
            <mxPoint x="2140" y="-30" as="sourcePoint" />
            <mxPoint x="1910" y="150" as="targetPoint" />
          </mxGeometry>
        </mxCell>
        <mxCell id="q8Qy7fo4GiIeipYBg-f--130" value="" style="endArrow=none;html=1;rounded=0;entryX=1;entryY=0.5;entryDx=0;entryDy=0;exitX=0;exitY=0.5;exitDx=0;exitDy=0;" parent="1" source="q8Qy7fo4GiIeipYBg-f--98" target="q8Qy7fo4GiIeipYBg-f--53" edge="1">
          <mxGeometry relative="1" as="geometry">
            <mxPoint x="2150" y="-20" as="sourcePoint" />
            <mxPoint x="1930" y="170" as="targetPoint" />
          </mxGeometry>
        </mxCell>
        <mxCell id="q8Qy7fo4GiIeipYBg-f--131" value="" style="endArrow=none;html=1;rounded=0;entryX=1;entryY=0.5;entryDx=0;entryDy=0;exitX=0;exitY=0.5;exitDx=0;exitDy=0;" parent="1" source="q8Qy7fo4GiIeipYBg-f--99" target="q8Qy7fo4GiIeipYBg-f--53" edge="1">
          <mxGeometry relative="1" as="geometry">
            <mxPoint x="2145" y="35" as="sourcePoint" />
            <mxPoint x="1940" y="180" as="targetPoint" />
          </mxGeometry>
        </mxCell>
        <mxCell id="q8Qy7fo4GiIeipYBg-f--132" value="" style="endArrow=none;html=1;rounded=0;entryX=1;entryY=0.5;entryDx=0;entryDy=0;exitX=0;exitY=0.5;exitDx=0;exitDy=0;" parent="1" source="q8Qy7fo4GiIeipYBg-f--100" target="q8Qy7fo4GiIeipYBg-f--53" edge="1">
          <mxGeometry relative="1" as="geometry">
            <mxPoint x="2150" y="90" as="sourcePoint" />
            <mxPoint x="1950" y="190" as="targetPoint" />
          </mxGeometry>
        </mxCell>
        <mxCell id="q8Qy7fo4GiIeipYBg-f--133" value="" style="edgeStyle=entityRelationEdgeStyle;fontSize=12;html=1;endArrow=ERoneToMany;rounded=0;exitX=1;exitY=0.5;exitDx=0;exitDy=0;" parent="1" source="q8Qy7fo4GiIeipYBg-f--51" target="q8Qy7fo4GiIeipYBg-f--102" edge="1">
          <mxGeometry width="100" height="100" relative="1" as="geometry">
            <mxPoint x="940" y="400" as="sourcePoint" />
            <mxPoint x="1040" y="300" as="targetPoint" />
          </mxGeometry>
        </mxCell>
        <mxCell id="q8Qy7fo4GiIeipYBg-f--134" value="" style="edgeStyle=entityRelationEdgeStyle;fontSize=12;html=1;endArrow=ERzeroToMany;startArrow=ERmandOne;rounded=0;entryX=0;entryY=0.5;entryDx=0;entryDy=0;" parent="1" source="q8Qy7fo4GiIeipYBg-f--102" target="q8Qy7fo4GiIeipYBg-f--52" edge="1">
          <mxGeometry width="100" height="100" relative="1" as="geometry">
            <mxPoint x="940" y="400" as="sourcePoint" />
            <mxPoint x="1040" y="300" as="targetPoint" />
          </mxGeometry>
        </mxCell>
        <mxCell id="q8Qy7fo4GiIeipYBg-f--138" value="" style="edgeStyle=entityRelationEdgeStyle;fontSize=12;html=1;endArrow=ERmany;startArrow=ERmany;rounded=0;exitX=1;exitY=0.5;exitDx=0;exitDy=0;" parent="1" source="q8Qy7fo4GiIeipYBg-f--52" target="q8Qy7fo4GiIeipYBg-f--103" edge="1">
          <mxGeometry width="100" height="100" relative="1" as="geometry">
            <mxPoint x="1470" y="190" as="sourcePoint" />
            <mxPoint x="1570" y="90" as="targetPoint" />
          </mxGeometry>
        </mxCell>
        <mxCell id="q8Qy7fo4GiIeipYBg-f--139" value="" style="edgeStyle=entityRelationEdgeStyle;fontSize=12;html=1;endArrow=ERmany;startArrow=ERmany;rounded=0;exitX=1;exitY=0.5;exitDx=0;exitDy=0;entryX=0;entryY=0.5;entryDx=0;entryDy=0;" parent="1" source="q8Qy7fo4GiIeipYBg-f--103" target="q8Qy7fo4GiIeipYBg-f--53" edge="1">
          <mxGeometry width="100" height="100" relative="1" as="geometry">
            <mxPoint x="1590" y="165" as="sourcePoint" />
            <mxPoint x="1780" y="195" as="targetPoint" />
          </mxGeometry>
        </mxCell>
        <mxCell id="q8Qy7fo4GiIeipYBg-f--140" value="" style="edgeStyle=entityRelationEdgeStyle;fontSize=12;html=1;endArrow=ERmany;startArrow=ERmany;rounded=0;exitX=1;exitY=0.5;exitDx=0;exitDy=0;entryX=0;entryY=0.5;entryDx=0;entryDy=0;" parent="1" source="q8Qy7fo4GiIeipYBg-f--52" target="q8Qy7fo4GiIeipYBg-f--104" edge="1">
          <mxGeometry width="100" height="100" relative="1" as="geometry">
            <mxPoint x="1360" y="180" as="sourcePoint" />
            <mxPoint x="1550" y="210" as="targetPoint" />
          </mxGeometry>
        </mxCell>
        <mxCell id="q8Qy7fo4GiIeipYBg-f--141" value="" style="edgeStyle=entityRelationEdgeStyle;fontSize=12;html=1;endArrow=ERmany;startArrow=ERmany;rounded=0;exitX=1;exitY=0.5;exitDx=0;exitDy=0;" parent="1" source="q8Qy7fo4GiIeipYBg-f--104" edge="1">
          <mxGeometry width="100" height="100" relative="1" as="geometry">
            <mxPoint x="1670" y="210" as="sourcePoint" />
            <mxPoint x="1810" y="170" as="targetPoint" />
          </mxGeometry>
        </mxCell>
        <mxCell id="q8Qy7fo4GiIeipYBg-f--142" value="Resume" style="rounded=1;arcSize=10;whiteSpace=wrap;html=1;align=center;" parent="1" vertex="1">
          <mxGeometry x="690" y="340" width="100" height="40" as="geometry" />
        </mxCell>
        <mxCell id="q8Qy7fo4GiIeipYBg-f--145" value="" style="edgeStyle=entityRelationEdgeStyle;fontSize=12;html=1;endArrow=ERmany;startArrow=ERmany;rounded=0;entryX=1;entryY=1;entryDx=0;entryDy=0;" parent="1" target="q8Qy7fo4GiIeipYBg-f--51" edge="1">
          <mxGeometry width="100" height="100" relative="1" as="geometry">
            <mxPoint x="800" y="290" as="sourcePoint" />
            <mxPoint x="660" y="173" as="targetPoint" />
            <Array as="points">
              <mxPoint x="760" y="240" />
              <mxPoint x="680" y="260" />
              <mxPoint x="670" y="230" />
            </Array>
          </mxGeometry>
        </mxCell>
        <mxCell id="q8Qy7fo4GiIeipYBg-f--146" value="" style="edgeStyle=entityRelationEdgeStyle;fontSize=12;html=1;endArrow=ERmany;startArrow=ERmany;rounded=0;exitX=1;exitY=0.5;exitDx=0;exitDy=0;" parent="1" source="q8Qy7fo4GiIeipYBg-f--142" edge="1">
          <mxGeometry width="100" height="100" relative="1" as="geometry">
            <mxPoint x="640" y="360" as="sourcePoint" />
            <mxPoint x="680" y="290" as="targetPoint" />
            <Array as="points">
              <mxPoint x="770" y="250" />
              <mxPoint x="660" y="350" />
              <mxPoint x="690" y="270" />
              <mxPoint x="680" y="240" />
            </Array>
          </mxGeometry>
        </mxCell>
        <mxCell id="q8Qy7fo4GiIeipYBg-f--148" value="" style="edgeStyle=entityRelationEdgeStyle;fontSize=12;html=1;endArrow=ERoneToMany;rounded=0;entryX=1;entryY=0.5;entryDx=0;entryDy=0;" parent="1" source="q8Qy7fo4GiIeipYBg-f--53" target="q8Qy7fo4GiIeipYBg-f--106" edge="1">
          <mxGeometry width="100" height="100" relative="1" as="geometry">
            <mxPoint x="1850" y="200" as="sourcePoint" />
            <mxPoint x="2020" y="270" as="targetPoint" />
          </mxGeometry>
        </mxCell>
        <mxCell id="q8Qy7fo4GiIeipYBg-f--149" value="" style="edgeStyle=entityRelationEdgeStyle;fontSize=12;html=1;endArrow=ERoneToMany;rounded=0;exitX=1;exitY=0.5;exitDx=0;exitDy=0;entryX=0;entryY=0.5;entryDx=0;entryDy=0;" parent="1" source="q8Qy7fo4GiIeipYBg-f--101" target="q8Qy7fo4GiIeipYBg-f--106" edge="1">
          <mxGeometry width="100" height="100" relative="1" as="geometry">
            <mxPoint x="1670" y="250" as="sourcePoint" />
            <mxPoint x="1770" y="150" as="targetPoint" />
          </mxGeometry>
        </mxCell>
        <mxCell id="q8Qy7fo4GiIeipYBg-f--150" value="T" style="ellipse;whiteSpace=wrap;html=1;" parent="1" vertex="1">
          <mxGeometry x="1280" y="240" width="40" height="40" as="geometry" />
        </mxCell>
        <mxCell id="q8Qy7fo4GiIeipYBg-f--154" value="" style="endArrow=none;html=1;rounded=0;exitX=0.5;exitY=1;exitDx=0;exitDy=0;entryX=0.5;entryY=0;entryDx=0;entryDy=0;" parent="1" source="q8Qy7fo4GiIeipYBg-f--52" target="q8Qy7fo4GiIeipYBg-f--150" edge="1">
          <mxGeometry relative="1" as="geometry">
            <mxPoint x="1220" y="320" as="sourcePoint" />
            <mxPoint x="1380" y="320" as="targetPoint" />
          </mxGeometry>
        </mxCell>
        <mxCell id="q8Qy7fo4GiIeipYBg-f--155" value="Standard" style="rounded=1;arcSize=10;whiteSpace=wrap;html=1;align=center;" parent="1" vertex="1">
          <mxGeometry x="1190" y="300" width="100" height="40" as="geometry" />
        </mxCell>
        <mxCell id="q8Qy7fo4GiIeipYBg-f--156" value="Premium" style="rounded=1;arcSize=10;whiteSpace=wrap;html=1;align=center;" parent="1" vertex="1">
          <mxGeometry x="1310" y="300" width="100" height="40" as="geometry" />
        </mxCell>
        <mxCell id="q8Qy7fo4GiIeipYBg-f--157" value="" style="endArrow=none;html=1;rounded=0;exitX=1;exitY=0;exitDx=0;exitDy=0;entryX=0.5;entryY=1;entryDx=0;entryDy=0;" parent="1" source="q8Qy7fo4GiIeipYBg-f--155" target="q8Qy7fo4GiIeipYBg-f--150" edge="1">
          <mxGeometry relative="1" as="geometry">
            <mxPoint x="1220" y="320" as="sourcePoint" />
            <mxPoint x="1380" y="320" as="targetPoint" />
          </mxGeometry>
        </mxCell>
        <mxCell id="q8Qy7fo4GiIeipYBg-f--158" value="" style="endArrow=none;html=1;rounded=0;exitX=0.5;exitY=1;exitDx=0;exitDy=0;entryX=0;entryY=0;entryDx=0;entryDy=0;" parent="1" source="q8Qy7fo4GiIeipYBg-f--150" target="q8Qy7fo4GiIeipYBg-f--156" edge="1">
          <mxGeometry relative="1" as="geometry">
            <mxPoint x="1220" y="320" as="sourcePoint" />
            <mxPoint x="1380" y="320" as="targetPoint" />
          </mxGeometry>
        </mxCell>
        <mxCell id="q8Qy7fo4GiIeipYBg-f--159" value="&lt;div&gt;JobSeeker Resume&lt;/div&gt;" style="rounded=1;arcSize=10;whiteSpace=wrap;html=1;align=center;" parent="1" vertex="1">
          <mxGeometry x="2010" y="160" width="100" height="40" as="geometry" />
        </mxCell>
        <mxCell id="q8Qy7fo4GiIeipYBg-f--160" value="Recruiter Contact Infomation" style="rounded=1;arcSize=10;whiteSpace=wrap;html=1;align=center;" parent="1" vertex="1">
          <mxGeometry x="520" y="190" width="100" height="40" as="geometry" />
        </mxCell>
        <mxCell id="q8Qy7fo4GiIeipYBg-f--161" value="RecruiterSearch" style="rounded=1;arcSize=10;whiteSpace=wrap;html=1;align=center;" parent="1" vertex="1">
          <mxGeometry x="520" y="340" width="100" height="40" as="geometry" />
        </mxCell>
        <mxCell id="cpl2Bo1nZKNPnRA_-VAF-5" value="" style="endArrow=none;html=1;rounded=0;exitX=1;exitY=0.5;exitDx=0;exitDy=0;entryX=0;entryY=0.5;entryDx=0;entryDy=0;" edge="1" parent="1" source="q8Qy7fo4GiIeipYBg-f--53" target="q8Qy7fo4GiIeipYBg-f--159">
          <mxGeometry relative="1" as="geometry">
            <mxPoint x="1820" y="210" as="sourcePoint" />
            <mxPoint x="1980" y="210" as="targetPoint" />
          </mxGeometry>
        </mxCell>
        <mxCell id="cpl2Bo1nZKNPnRA_-VAF-6" value="" style="endArrow=none;html=1;rounded=0;exitX=1;exitY=0.5;exitDx=0;exitDy=0;entryX=0;entryY=0.5;entryDx=0;entryDy=0;" edge="1" parent="1" source="q8Qy7fo4GiIeipYBg-f--159" target="q8Qy7fo4GiIeipYBg-f--71">
          <mxGeometry relative="1" as="geometry">
            <mxPoint x="1820" y="210" as="sourcePoint" />
            <mxPoint x="1980" y="210" as="targetPoint" />
          </mxGeometry>
        </mxCell>
        <mxCell id="cpl2Bo1nZKNPnRA_-VAF-7" value="" style="endArrow=none;html=1;rounded=0;exitX=1;exitY=0.5;exitDx=0;exitDy=0;entryX=0;entryY=0.5;entryDx=0;entryDy=0;" edge="1" parent="1" source="q8Qy7fo4GiIeipYBg-f--159" target="q8Qy7fo4GiIeipYBg-f--72">
          <mxGeometry relative="1" as="geometry">
            <mxPoint x="2120" y="190" as="sourcePoint" />
            <mxPoint x="2155" y="195" as="targetPoint" />
          </mxGeometry>
        </mxCell>
        <mxCell id="cpl2Bo1nZKNPnRA_-VAF-8" value="" style="endArrow=none;html=1;rounded=0;exitX=1;exitY=1;exitDx=0;exitDy=0;entryX=0;entryY=0.5;entryDx=0;entryDy=0;" edge="1" parent="1" source="q8Qy7fo4GiIeipYBg-f--159" target="q8Qy7fo4GiIeipYBg-f--73">
          <mxGeometry relative="1" as="geometry">
            <mxPoint x="2120" y="190" as="sourcePoint" />
            <mxPoint x="2155" y="240" as="targetPoint" />
          </mxGeometry>
        </mxCell>
        <mxCell id="cpl2Bo1nZKNPnRA_-VAF-9" value="" style="endArrow=none;html=1;rounded=0;exitX=0.75;exitY=1;exitDx=0;exitDy=0;entryX=0;entryY=0.5;entryDx=0;entryDy=0;" edge="1" parent="1" source="q8Qy7fo4GiIeipYBg-f--159" target="q8Qy7fo4GiIeipYBg-f--74">
          <mxGeometry relative="1" as="geometry">
            <mxPoint x="2120" y="210" as="sourcePoint" />
            <mxPoint x="2155" y="290" as="targetPoint" />
          </mxGeometry>
        </mxCell>
        <mxCell id="cpl2Bo1nZKNPnRA_-VAF-10" value="" style="endArrow=none;html=1;rounded=0;exitX=0.5;exitY=1;exitDx=0;exitDy=0;entryX=0;entryY=0.5;entryDx=0;entryDy=0;" edge="1" parent="1" source="q8Qy7fo4GiIeipYBg-f--159" target="q8Qy7fo4GiIeipYBg-f--75">
          <mxGeometry relative="1" as="geometry">
            <mxPoint x="2095" y="210" as="sourcePoint" />
            <mxPoint x="2155" y="340" as="targetPoint" />
          </mxGeometry>
        </mxCell>
        <mxCell id="cpl2Bo1nZKNPnRA_-VAF-11" value="" style="endArrow=none;html=1;rounded=0;exitX=0.5;exitY=1;exitDx=0;exitDy=0;entryX=0;entryY=0.5;entryDx=0;entryDy=0;" edge="1" parent="1" source="q8Qy7fo4GiIeipYBg-f--159" target="q8Qy7fo4GiIeipYBg-f--76">
          <mxGeometry relative="1" as="geometry">
            <mxPoint x="2070" y="210" as="sourcePoint" />
            <mxPoint x="2155" y="390" as="targetPoint" />
          </mxGeometry>
        </mxCell>
        <mxCell id="cpl2Bo1nZKNPnRA_-VAF-12" value="" style="endArrow=none;html=1;rounded=0;exitX=0.5;exitY=1;exitDx=0;exitDy=0;entryX=0.5;entryY=0;entryDx=0;entryDy=0;" edge="1" parent="1" source="q8Qy7fo4GiIeipYBg-f--159" target="q8Qy7fo4GiIeipYBg-f--77">
          <mxGeometry relative="1" as="geometry">
            <mxPoint x="2070" y="210" as="sourcePoint" />
            <mxPoint x="2155" y="440" as="targetPoint" />
          </mxGeometry>
        </mxCell>
        <mxCell id="cpl2Bo1nZKNPnRA_-VAF-13" value="" style="endArrow=none;html=1;rounded=0;exitX=0.5;exitY=1;exitDx=0;exitDy=0;entryX=0.5;entryY=0;entryDx=0;entryDy=0;" edge="1" parent="1" source="q8Qy7fo4GiIeipYBg-f--159" target="q8Qy7fo4GiIeipYBg-f--78">
          <mxGeometry relative="1" as="geometry">
            <mxPoint x="2070" y="210" as="sourcePoint" />
            <mxPoint x="2095" y="420" as="targetPoint" />
          </mxGeometry>
        </mxCell>
        <mxCell id="cpl2Bo1nZKNPnRA_-VAF-14" value="" style="endArrow=none;html=1;rounded=0;exitX=0.5;exitY=1;exitDx=0;exitDy=0;" edge="1" parent="1" source="q8Qy7fo4GiIeipYBg-f--159" target="q8Qy7fo4GiIeipYBg-f--79">
          <mxGeometry relative="1" as="geometry">
            <mxPoint x="2070" y="210" as="sourcePoint" />
            <mxPoint x="2105" y="430" as="targetPoint" />
          </mxGeometry>
        </mxCell>
        <mxCell id="cpl2Bo1nZKNPnRA_-VAF-16" value="" style="ellipse;whiteSpace=wrap;html=1;align=center;aspect=fixed;fillColor=none;strokeColor=none;resizable=0;perimeter=centerPerimeter;rotatable=0;allowArrows=0;points=[];outlineConnect=1;" vertex="1" parent="1">
          <mxGeometry x="1420" y="520" width="10" height="10" as="geometry" />
        </mxCell>
        <mxCell id="cpl2Bo1nZKNPnRA_-VAF-19" value="" style="ellipse;whiteSpace=wrap;html=1;align=center;aspect=fixed;fillColor=none;strokeColor=none;resizable=0;perimeter=centerPerimeter;rotatable=0;allowArrows=0;points=[];outlineConnect=1;" vertex="1" parent="1">
          <mxGeometry x="1300" y="500" width="10" height="10" as="geometry" />
        </mxCell>
        <mxCell id="cpl2Bo1nZKNPnRA_-VAF-21" value="" style="shape=requiredInterface;html=1;verticalLabelPosition=bottom;sketch=0;rotation=90;" vertex="1" parent="1">
          <mxGeometry x="1295" y="205" width="10" height="20" as="geometry" />
        </mxCell>
      </root>
    </mxGraphModel>
  </diagram>
</mxfile>
